<svg xmlns="http://www.w3.org/2000/svg" viewBox="0 0 170 40" enable-background="new 0 0 170 40"><path fill="#fff" d="M169.4 0c0 2.2-.3 8.9-3.3 16.3-1 1.7-2.2 3.3-4.1 4.8-3.1 2.5-8 2.1-8 2.1.2 7-2.1 10.8-4.4 12.9-6.5 3.7-11.5 3.2-11.6 3.2v.7h.9c1.4 0 4.1-.2 7.7-1.7 4.5-1.8 11.2-6.1 17.3-16.2 5.7-9.4 6.1-19.3 6.1-22.1h-.6z"/><g enable-background="new" fill="#fff"><path d="M9.1 9.6v.6c0 .2-.1.3-.1.4 0 .1-.1.2-.2.2l-.2.1h-5.3v4.3h5c.1 0 .1 0 .2.1.1 0 .1.1.2.2 0 .1.1.2.1.4v1.2c0 .2-.1.3-.1.4 0 .1-.1.2-.2.2l-.2.1h-5v6c0 .1 0 .2-.1.2-.1.1-.1.1-.3.2-.1 0-.3.1-.5.1h-1.6s-.4-.1-.5-.1-.2-.1-.3-.2v-14.7c0-.4.1-.6.3-.8.2-.2.4-.2.7-.2h7.6c.1 0 .1 0 .2.1.1 0 .1.1.2.2v.4c.1.1.1.4.1.6zM27.9 23v.6c0 .2-.1.3-.1.4 0 .1-.1.2-.2.2s-.1.1-.2.1h-7.4c-.3 0-.5-.1-.7-.2-.2-.1-.3-.3-.3-.7v-14.7c0-.1 0-.2.1-.2.1-.1.1-.1.3-.2.1 0 .3-.1.5-.1h1.6c.2 0 .4.1.5.1.1 0 .2.1.3.2.1.1.1.1.1.2v13h5.1c.1 0 .2 0 .2.1l.2.2c0 .1.1.2.1.4-.1.2-.1.4-.1.6zM40.4 24c0 .1 0 .2-.1.2-.1.1-.1.1-.3.2-.1 0-.3.1-.5.1h-1.6c-.2 0-.4-.1-.5-.1-.1 0-.2-.1-.3-.2-.1-.1-.1-.1-.1-.2v-15.3c0-.1 0-.2.1-.2.1-.1.1-.1.3-.2.1 0 .3-.1.5-.1h1.6s.4.1.5.1c.1 0 .2.1.3.2.1.1.1.1.1.2v15.3zM62.2 13.2c0 .9-.1 1.7-.4 2.4-.3.7-.7 1.3-1.2 1.8s-1.2.8-2 1.1c-.8.2-1.7.4-2.8.4h-1.3v5.1c0 .1 0 .2-.1.2-.1.1-.1.1-.3.2-.1 0-.3.1-.5.1h-1.6c-.2 0-.4-.1-.5-.1-.1 0-.2-.1-.3-.2l-.1-.2v-14.6c0-.4.1-.7.3-.9.2-.2.5-.3.8-.3h4.9c.3 0 .8.1 1.2.2.5.1 1 .3 1.5.5.5.3.9.6 1.3 1 .3.4.6.9.8 1.4.2.6.3 1.2.3 1.9zm-3.4.2c0-.6-.1-1-.3-1.4-.2-.4-.4-.6-.7-.8-.3-.2-.6-.3-.9-.3l-1-.1h-1.4v5.5h1.5c.5 0 1-.1 1.3-.2.4-.1.6-.3.9-.6.2-.3.4-.6.5-.9l.1-1.2z"/></g><g enable-background="new" fill="#fff"><path d="M82.7 19.9c0 .8-.1 1.4-.4 2-.3.6-.7 1.1-1.2 1.5-.5.4-1.1.7-1.7.9-.7.2-1.4.3-2.2.3-.5 0-1 0-1.5-.1s-.9-.2-1.2-.3c-.4-.1-.7-.3-.9-.4-.2-.1-.4-.3-.5-.4-.1-.1-.2-.2-.2-.4l-.1-.6v-.5c0-.1 0-.2.1-.3l.1-.2h.2c.1 0 .3.1.5.2s.5.3.8.5c.3.2.7.3 1.2.5.5.1 1 .2 1.6.2.5 0 .9-.1 1.3-.2s.7-.3 1-.5c.3-.2.5-.5.6-.8.2-.3.2-.7.2-1.1 0-.5-.1-.8-.3-1.2-.2-.3-.5-.6-.8-.9-.3-.2-.7-.5-1.2-.7l-1.3-.6c-.5-.2-.9-.4-1.3-.7l-1.2-.9c-.3-.3-.6-.8-.8-1.2-.2-.5-.3-1-.3-1.7s.1-1.3.4-1.8c.2-.5.6-1 1-1.3.4-.4 1-.6 1.6-.8.6-.2 1.3-.3 2-.3.4 0 .7 0 1.1.1.4.1.7.1 1 .2l.9.3c.1.1.3.3.4.3l.2.2s0 .1.1.2v1.1c0 .1 0 .2-.1.3l-.1.2s-.1.1-.2.1-.2-.1-.4-.2-.4-.2-.7-.4c-.3-.1-.6-.3-1-.4-.4-.2-.9-.3-1.4-.3-.4 0-.8.1-1.2.2-.3.1-.6.3-.8.5-.2.2-.4.4-.5.7-.1.3-.2.6-.2.9 0 .4.1.8.3 1.2.2.3.5.6.8.9.3.2.7.5 1.2.7l1.3.6c.5.2.9.4 1.3.7l1.2.9c.3.3.6.8.8 1.2.4.4.5.9.5 1.6zM95.2 24.1v.2c0 .1-.1.1-.2.1l-.3.1h-1c-.1 0-.3 0-.3-.1l-.2-.1v-15.7c0-.1 0-.1.1-.2 0-.1.1-.1.2-.1l.3-.1h1c.1 0 .2 0 .3.1l.2.1v15.7zM119.2 16.1c0 1.4-.2 2.6-.5 3.7-.4 1-.9 1.9-1.6 2.6-.7.7-1.5 1.2-2.5 1.5-1 .3-2.2.5-3.6.5h-3.4c-.2 0-.4-.1-.5-.2-.2-.1-.3-.4-.3-.7v-14.4c0-.3.1-.6.3-.7.2-.1.4-.2.5-.2h3.7c1.4 0 2.6.2 3.5.5 1 .4 1.8.9 2.4 1.6.7.7 1.1 1.5 1.5 2.5.4 1 .5 2.1.5 3.3zm-2.2.1c0-.9-.1-1.7-.3-2.4-.2-.8-.6-1.4-1-2-.5-.5-1-1-1.8-1.3s-1.6-.5-2.7-.5h-2.2v12.6h2.2c1 0 1.9-.1 2.6-.4.7-.3 1.3-.7 1.8-1.2s.8-1.2 1.1-2c.1-.8.3-1.7.3-2.8zM138.8 23.5v.4c0 .1 0 .2-.1.3l-.1.2h-8c-.2 0-.4-.1-.5-.2-.2-.1-.3-.4-.3-.7v-14.4c0-.3.1-.6.3-.7.2-.1.4-.2.5-.2h7.9c.1 0 .1.1.1.2s.1.2.1.3v.8c0 .1 0 .2-.1.3l-.1.2-.2.1h-6.3v5.1h5.4c.1 0 .1 0 .2.1.1 0 .1.1.1.2l.1.3v.8s0 .2-.1.3c0 .1-.1.1-.1.1h-5.6000000000000005v5.8h6.4c.1 0 .1 0 .2.1.1 0 .1.1.1.2l.1.3v.1z"/></g></svg>