<?xml version="1.0" encoding="UTF-8" standalone="no"?>
<!-- Generator: Adobe Illustrator 17.1.0, SVG Export Plug-In . SVG Version: 6.00 Build 0)  -->

<svg
   xmlns:dc="http://purl.org/dc/elements/1.1/"
   xmlns:cc="http://creativecommons.org/ns#"
   xmlns:rdf="http://www.w3.org/1999/02/22-rdf-syntax-ns#"
   xmlns:svg="http://www.w3.org/2000/svg"
   xmlns="http://www.w3.org/2000/svg"
   xmlns:sodipodi="http://sodipodi.sourceforge.net/DTD/sodipodi-0.dtd"
   xmlns:inkscape="http://www.inkscape.org/namespaces/inkscape"
   version="1.1"
   id="Layer_1"
   x="0px"
   y="0px"
   width="170px"
   height="40px"
   viewBox="0 0 170 40"
   enable-background="new 0 0 170 40"
   xml:space="preserve"
   inkscape:version="0.48.4 r9939"
   sodipodi:docname="flipside-logo-dark.svg"><metadata
     id="metadata31"><rdf:RDF><cc:Work
         rdf:about=""><dc:format>image/svg+xml</dc:format><dc:type
           rdf:resource="http://purl.org/dc/dcmitype/StillImage" /><dc:title></dc:title></cc:Work></rdf:RDF></metadata><defs
     id="defs29" /><sodipodi:namedview
     pagecolor="#ffffff"
     bordercolor="#666666"
     borderopacity="1"
     objecttolerance="10"
     gridtolerance="10"
     guidetolerance="10"
     inkscape:pageopacity="0"
     inkscape:pageshadow="2"
     inkscape:window-width="1366"
     inkscape:window-height="744"
     id="namedview27"
     showgrid="false"
     inkscape:zoom="1.8588235"
     inkscape:cx="-5.2583391"
     inkscape:cy="20"
     inkscape:window-x="0"
     inkscape:window-y="24"
     inkscape:window-maximized="1"
     inkscape:current-layer="Layer_1" /><path
     style="fill:#5f656b;stroke:none;stroke-opacity:1;fill-opacity:1"
     inkscape:connector-curvature="0"
     id="path5"
     d="m 169.4,0 c 0,2.2 -0.3,8.9 -3.3,16.3 -1,1.7 -2.2,3.3 -4.1,4.8 -3.1,2.5 -8,2.1 -8,2.1 0.2,7 -2.1,10.8 -4.4,12.9 -6.5,3.7 -11.5,3.2 -11.6,3.2 l 0,0.7 c 0,0 0.4,0 0.9,0 1.4,0 4.1,-0.2 7.7,-1.7 4.5,-1.8 11.2,-6.1 17.3,-16.2 C 169.6,12.7 170,2.8 170,0 h -0.6 z" /><g
     id="g7"
     enable-background="new    "
     style="stroke:none;stroke-opacity:1;fill:#5f656b;fill-opacity:1"><path
       style="fill:#5f656b;stroke:none;stroke-opacity:1;fill-opacity:1"
       inkscape:connector-curvature="0"
       id="path9"
       d="m 9.1,9.6 c 0,0.2 0,0.5 0,0.6 0,0.2 -0.1,0.3 -0.1,0.4 0,0.1 -0.1,0.2 -0.2,0.2 -0.1,0 -0.1,0.1 -0.2,0.1 H 3.3 v 4.3 h 5 c 0.1,0 0.1,0 0.2,0.1 0.1,0 0.1,0.1 0.2,0.2 0,0.1 0.1,0.2 0.1,0.4 0,0.2 0,0.4 0,0.6 0,0.2 0,0.5 0,0.6 0,0.2 -0.1,0.3 -0.1,0.4 0,0.1 -0.1,0.2 -0.2,0.2 -0.1,0 -0.1,0.1 -0.2,0.1 h -5 v 6 c 0,0.1 0,0.2 -0.1,0.2 -0.1,0.1 -0.1,0.1 -0.3,0.2 -0.1,0 -0.3,0.1 -0.5,0.1 -0.2,0 -0.5,0 -0.8,0 -0.3,0 -0.6,0 -0.8,0 C 0.6,24.3 0.4,24.2 0.3,24.2 0.2,24.2 0.1,24.1 0,24 0,24.1 0,24 0,23.9 V 9.3 C 0,8.9 0.1,8.7 0.3,8.5 0.5,8.3 0.7,8.3 1,8.3 h 7.6 c 0.1,0 0.1,0 0.2,0.1 0.1,0 0.1,0.1 0.2,0.2 0,0.1 0,0.2 0,0.4 0.1,0.1 0.1,0.4 0.1,0.6 z" /><path
       style="fill:#5f656b;stroke:none;stroke-opacity:1;fill-opacity:1"
       inkscape:connector-curvature="0"
       id="path11"
       d="m 27.9,23 c 0,0.3 0,0.5 0,0.6 0,0.2 -0.1,0.3 -0.1,0.4 0,0.1 -0.1,0.2 -0.2,0.2 -0.1,0 -0.1,0.1 -0.2,0.1 H 20 c -0.3,0 -0.5,-0.1 -0.7,-0.2 C 19.1,24 19,23.8 19,23.4 V 8.7 c 0,-0.1 0,-0.2 0.1,-0.2 0.1,-0.1 0.1,-0.1 0.3,-0.2 0.1,0 0.3,-0.1 0.5,-0.1 0.2,0 0.5,0 0.8,0 0.3,0 0.6,0 0.8,0 0.2,0 0.4,0.1 0.5,0.1 0.1,0 0.2,0.1 0.3,0.2 0.1,0.1 0.1,0.1 0.1,0.2 v 13 h 5.1 c 0.1,0 0.2,0 0.2,0.1 0,0.1 0.1,0.1 0.2,0.2 0,0.1 0.1,0.2 0.1,0.4 -0.1,0.2 -0.1,0.4 -0.1,0.6 z" /><path
       style="fill:#5f656b;stroke:none;stroke-opacity:1;fill-opacity:1"
       inkscape:connector-curvature="0"
       id="path13"
       d="m 40.4,24 c 0,0.1 0,0.2 -0.1,0.2 -0.1,0.1 -0.1,0.1 -0.3,0.2 -0.1,0 -0.3,0.1 -0.5,0.1 -0.2,0 -0.5,0 -0.8,0 -0.3,0 -0.6,0 -0.8,0 -0.2,0 -0.4,-0.1 -0.5,-0.1 -0.1,0 -0.2,-0.1 -0.3,-0.2 C 37,24.1 37,24.1 37,24 V 8.7 c 0,-0.1 0,-0.2 0.1,-0.2 0.1,-0.1 0.1,-0.1 0.3,-0.2 0.1,0 0.3,-0.1 0.5,-0.1 0.2,0 0.5,0 0.8,0 0.3,0 0.6,0 0.8,0 0.2,0 0.4,0.1 0.5,0.1 0.1,0 0.2,0.1 0.3,0.2 0.1,0.1 0.1,0.1 0.1,0.2 V 24 z" /><path
       style="fill:#5f656b;stroke:none;stroke-opacity:1;fill-opacity:1"
       inkscape:connector-curvature="0"
       id="path15"
       d="m 62.2,13.2 c 0,0.9 -0.1,1.7 -0.4,2.4 -0.3,0.7 -0.7,1.3 -1.2,1.8 -0.5,0.5 -1.2,0.8 -2,1.1 -0.8,0.2 -1.7,0.4 -2.8,0.4 H 54.5 V 24 c 0,0.1 0,0.2 -0.1,0.2 -0.1,0.1 -0.1,0.1 -0.3,0.2 -0.1,0 -0.3,0.1 -0.5,0.1 -0.2,0 -0.5,0 -0.8,0 -0.3,0 -0.6,0 -0.8,0 -0.2,0 -0.4,-0.1 -0.5,-0.1 -0.1,0 -0.2,-0.1 -0.3,-0.2 0,-0.1 -0.1,-0.1 -0.1,-0.2 V 9.4 C 51.1,9 51.2,8.7 51.4,8.5 51.6,8.3 51.9,8.2 52.2,8.2 H 56 c 0.4,0 0.7,0 1.1,0 0.3,0 0.8,0.1 1.2,0.2 0.5,0.1 1,0.3 1.5,0.5 0.5,0.3 0.9,0.6 1.3,1 0.3,0.4 0.6,0.9 0.8,1.4 0.2,0.6 0.3,1.2 0.3,1.9 z m -3.4,0.2 c 0,-0.6 -0.1,-1 -0.3,-1.4 -0.2,-0.4 -0.4,-0.6 -0.7,-0.8 -0.3,-0.2 -0.6,-0.3 -0.9,-0.3 -0.3,0 -0.7,-0.1 -1,-0.1 h -1.4 v 5.5 H 56 c 0.5,0 1,-0.1 1.3,-0.2 0.4,-0.1 0.6,-0.3 0.9,-0.6 0.2,-0.3 0.4,-0.6 0.5,-0.9 0,-0.4 0.1,-0.8 0.1,-1.2 z" /></g><g
     id="g17"
     enable-background="new    "
     style="stroke:none;stroke-opacity:1;fill:#5f656b;fill-opacity:1"><path
       style="fill:#5f656b;stroke:none;stroke-opacity:1;fill-opacity:1"
       inkscape:connector-curvature="0"
       id="path19"
       d="m 82.7,19.9 c 0,0.8 -0.1,1.4 -0.4,2 -0.3,0.6 -0.7,1.1 -1.2,1.5 -0.5,0.4 -1.1,0.7 -1.7,0.9 -0.7,0.2 -1.4,0.3 -2.2,0.3 -0.5,0 -1,0 -1.5,-0.1 -0.5,-0.1 -0.9,-0.2 -1.2,-0.3 -0.4,-0.1 -0.7,-0.3 -0.9,-0.4 -0.2,-0.1 -0.4,-0.3 -0.5,-0.4 -0.1,-0.1 -0.2,-0.2 -0.2,-0.4 0,-0.2 -0.1,-0.4 -0.1,-0.6 0,-0.2 0,-0.3 0,-0.5 0,-0.1 0,-0.2 0.1,-0.3 0,-0.1 0.1,-0.1 0.1,-0.2 0.1,0 0.1,0 0.2,0 0.1,0 0.3,0.1 0.5,0.2 0.2,0.1 0.5,0.3 0.8,0.5 0.3,0.2 0.7,0.3 1.2,0.5 0.5,0.1 1,0.2 1.6,0.2 0.5,0 0.9,-0.1 1.3,-0.2 0.4,-0.1 0.7,-0.3 1,-0.5 0.3,-0.2 0.5,-0.5 0.6,-0.8 0.2,-0.3 0.2,-0.7 0.2,-1.1 0,-0.5 -0.1,-0.8 -0.3,-1.2 C 79.9,18.7 79.6,18.4 79.3,18.1 79,17.9 78.6,17.6 78.1,17.4 77.7,17.2 77.2,17 76.8,16.8 76.3,16.6 75.9,16.4 75.5,16.1 75.1,15.8 74.7,15.5 74.3,15.2 74,14.9 73.7,14.4 73.5,14 c -0.2,-0.5 -0.3,-1 -0.3,-1.7 0,-0.7 0.1,-1.3 0.4,-1.8 0.2,-0.5 0.6,-1 1,-1.3 0.4,-0.4 1,-0.6 1.6,-0.8 0.6,-0.2 1.3,-0.3 2,-0.3 0.4,0 0.7,0 1.1,0.1 0.4,0.1 0.7,0.1 1,0.2 0.3,0.1 0.6,0.2 0.9,0.3 0.1,0.1 0.3,0.3 0.4,0.3 0.1,0.1 0.1,0.1 0.2,0.2 0,0 0,0.1 0.1,0.2 0,0.1 0,0.2 0,0.3 0,0.1 0,0.2 0,0.4 0,0.2 0,0.3 0,0.4 0,0.1 0,0.2 -0.1,0.3 0,0.1 -0.1,0.1 -0.1,0.2 0,0 -0.1,0.1 -0.2,0.1 -0.1,0 -0.2,-0.1 -0.4,-0.2 -0.2,-0.1 -0.4,-0.2 -0.7,-0.4 -0.3,-0.1 -0.6,-0.3 -1,-0.4 C 79,9.9 78.5,9.8 78,9.8 c -0.4,0 -0.8,0.1 -1.2,0.2 -0.3,0.1 -0.6,0.3 -0.8,0.5 -0.2,0.2 -0.4,0.4 -0.5,0.7 -0.1,0.3 -0.2,0.6 -0.2,0.9 0,0.4 0.1,0.8 0.3,1.2 0.2,0.3 0.5,0.6 0.8,0.9 0.3,0.2 0.7,0.5 1.2,0.7 0.4,0.2 0.9,0.4 1.3,0.6 0.5,0.2 0.9,0.4 1.3,0.7 0.4,0.3 0.8,0.6 1.2,0.9 0.3,0.3 0.6,0.8 0.8,1.2 0.4,0.4 0.5,0.9 0.5,1.6 z" /><path
       style="fill:#5f656b;stroke:none;stroke-opacity:1;fill-opacity:1"
       inkscape:connector-curvature="0"
       id="path21"
       d="m 95.2,24.1 c 0,0.1 0,0.1 0,0.2 0,0.1 -0.1,0.1 -0.2,0.1 -0.1,0 -0.2,0.1 -0.3,0.1 -0.1,0 -0.3,0 -0.5,0 -0.2,0 -0.4,0 -0.5,0 -0.1,0 -0.3,0 -0.3,-0.1 -0.1,0 -0.1,-0.1 -0.2,-0.1 0,0 0,-0.1 0,-0.2 V 8.6 c 0,-0.1 0,-0.1 0.1,-0.2 0,-0.1 0.1,-0.1 0.2,-0.1 0.1,0 0.2,-0.1 0.3,-0.1 0.1,0 0.3,0 0.5,0 0.2,0 0.4,0 0.5,0 0.1,0 0.2,0 0.3,0.1 0.1,0 0.1,0.1 0.2,0.1 0,0 0,0.1 0,0.2 v 15.5 z" /><path
       style="fill:#5f656b;stroke:none;stroke-opacity:1;fill-opacity:1"
       inkscape:connector-curvature="0"
       id="path23"
       d="m 119.2,16.1 c 0,1.4 -0.2,2.6 -0.5,3.7 -0.4,1 -0.9,1.9 -1.6,2.6 -0.7,0.7 -1.5,1.2 -2.5,1.5 -1,0.3 -2.2,0.5 -3.6,0.5 h -3.4 c -0.2,0 -0.4,-0.1 -0.5,-0.2 -0.2,-0.1 -0.3,-0.4 -0.3,-0.7 V 9.1 c 0,-0.3 0.1,-0.6 0.3,-0.7 0.2,-0.1 0.4,-0.2 0.5,-0.2 h 3.7 c 1.4,0 2.6,0.2 3.5,0.5 1,0.4 1.8,0.9 2.4,1.6 0.7,0.7 1.1,1.5 1.5,2.5 0.4,1 0.5,2.1 0.5,3.3 z m -2.2,0.1 c 0,-0.9 -0.1,-1.7 -0.3,-2.4 -0.2,-0.8 -0.6,-1.4 -1,-2 -0.5,-0.5 -1,-1 -1.8,-1.3 -0.8,-0.3 -1.6,-0.5 -2.7,-0.5 H 109 v 12.6 h 2.2 c 1,0 1.9,-0.1 2.6,-0.4 0.7,-0.3 1.3,-0.7 1.8,-1.2 0.5,-0.5 0.8,-1.2 1.1,-2 0.1,-0.8 0.3,-1.7 0.3,-2.8 z" /><path
       style="fill:#5f656b;stroke:none;stroke-opacity:1;fill-opacity:1"
       inkscape:connector-curvature="0"
       id="path25"
       d="m 138.8,23.5 c 0,0.2 0,0.3 0,0.4 0,0.1 0,0.2 -0.1,0.3 0,0.1 -0.1,0.1 -0.1,0.2 -0.1,0 -0.1,0 -0.2,0 h -7.8 c -0.2,0 -0.4,-0.1 -0.5,-0.2 -0.2,-0.1 -0.3,-0.4 -0.3,-0.7 V 9.1 c 0,-0.3 0.1,-0.6 0.3,-0.7 0.2,-0.1 0.4,-0.2 0.5,-0.2 h 7.7 c 0.1,0 0.1,0 0.2,0 0.1,0 0.1,0.1 0.1,0.2 0,0.1 0.1,0.2 0.1,0.3 0,0.1 0,0.3 0,0.4 0,0.2 0,0.3 0,0.4 0,0.1 0,0.2 -0.1,0.3 0,0.1 -0.1,0.1 -0.1,0.2 -0.1,0 -0.1,0.1 -0.2,0.1 H 132 v 5.1 h 5.4 c 0.1,0 0.1,0 0.2,0.1 0.1,0 0.1,0.1 0.1,0.2 0,0.1 0.1,0.2 0.1,0.3 0,0.1 0,0.3 0,0.4 0,0.1 0,0.3 0,0.4 0,0.1 0,0.2 -0.1,0.3 0,0.1 -0.1,0.1 -0.1,0.1 -0.1,0 -0.1,0 -0.2,0 H 132 v 5.8 h 6.4 c 0.1,0 0.1,0 0.2,0.1 0.1,0 0.1,0.1 0.1,0.2 0,0.1 0.1,0.2 0.1,0.3 0,-0.2 0,0 0,0.1 z" /></g></svg>