<?xml version="1.0" encoding="utf-8"?>
<!-- Generator: Adobe Illustrator 17.1.0, SVG Export Plug-In . SVG Version: 6.00 Build 0)  -->
<!DOCTYPE svg PUBLIC "-//W3C//DTD SVG 1.1//EN" "http://www.w3.org/Graphics/SVG/1.1/DTD/svg11.dtd">
<svg version="1.1" id="Layer_1" xmlns="http://www.w3.org/2000/svg" xmlns:xlink="http://www.w3.org/1999/xlink" x="0px" y="0px"
	 width="184px" height="344px" viewBox="0 0 184 344" enable-background="new 0 0 184 344" xml:space="preserve">
<g>
	<path fill="#E1E2E4" d="M184,316c0,15.4-12.6,28-28,28H28c-15.4,0-28-12.6-28-28V28C0,12.6,12.6,0,28,0h128c15.4,0,28,12.6,28,28
		V316z"/>
	<rect x="12" y="48" fill="#FFFFFF" width="160" height="240"/>
	<path fill="#AFB3B6" d="M106,29c0,1.6-1.3,3-3,3H77c-1.7,0-3-1.4-3-3l0,0c0-1.6,1.3-3,3-3h26C104.7,26,106,27.4,106,29L106,29z"/>
	<circle fill="#AFB3B6" cx="67" cy="29" r="3"/>
	<g>
		<defs>
			<rect id="SVGID_3_" x="12" y="48" width="160" height="240"/>
		</defs>
		<clipPath id="SVGID_1_">
			<use xlink:href="#SVGID_3_"  overflow="visible"/>
		</clipPath>
	</g>
	<circle fill="#AFB3B6" cx="92" cy="316" r="16"/>
</g>
</svg>
