<?xml version="1.0" encoding="utf-8"?>
<!-- Generator: Adobe Illustrator 17.1.0, SVG Export Plug-In . SVG Version: 6.00 Build 0)  -->
<!DOCTYPE svg PUBLIC "-//W3C//DTD SVG 1.1//EN" "http://www.w3.org/Graphics/SVG/1.1/DTD/svg11.dtd">
<svg version="1.1" id="Layer_1" xmlns="http://www.w3.org/2000/svg" xmlns:xlink="http://www.w3.org/1999/xlink" x="0px" y="0px"
	 width="112px" height="112px" viewBox="0 0 112 112" enable-background="new 0 0 112 112" xml:space="preserve">
<path fill="#E0AC00" d="M82.3,4H12C9.8,4,8,5.8,8,8v96c0,2.2,1.8,4,4,4h88c2.2,0,4-1.8,4-4V25.7c0-1.1-0.4-2.1-1.2-2.8L85.2,5.2
	C84.4,4.4,83.4,4,82.3,4z M100,92H12V8h68v20h20V92z"/>
<polygon fill="#EFD580" points="40,40 24,56 40,72 44,68 32,56 44,44 "/>
<polygon fill="#EFD580" points="72,40 88,56 72,72 68,68 80,56 68,44 "/>
<polygon fill="#EFD580" points="63,28 57,28 49,76 55,76 "/>
</svg>
