<svg version="1.1" id="Layer_1" xmlns="http://www.w3.org/2000/svg" xmlns:xlink="http://www.w3.org/1999/xlink" x="0px" y="0px"
	 viewBox="0 0 1160 420" enable-background="new 0 0 1160 420" xml:space="preserve">
<g opacity="4.000000e-02">
	<g>
		<path fill="#FFFFFF" d="M1103.7,11.5C1088.3,3,1061.9,0,1045,4.8L822.2,68.7c-16.9,4.9-37.7,21.4-46.3,36.8L663.5,308.3
			c-8.5,15.4-11.5,41.8-6.7,58.7l15.2,53h488V42.7L1103.7,11.5z"/>
	</g>
</g>
<g opacity="4.000000e-02">
	<g>
		<path fill="#FFFFFF" d="M1012.7,383.1L868.6,191.8c-10.6-14.1-33.5-27.6-50.9-30l-237.2-33.3c-17.4-2.4-43.2,4.2-57.2,14.8
			L331.8,287.4c-14.1,10.6-27.6,33.5-30,50.9L290.3,420H1027C1024.9,406.4,1019.6,392.3,1012.7,383.1z"/>
	</g>
</g>
<g opacity="4.000000e-02">
	<g>
		<path fill="#FFFFFF" d="M1049.6,272.6c-13.5-11.3-38.9-19.3-56.4-17.8L750,276.1c-17.5,1.5-41.1,13.8-52.4,27.3L599.7,420H1160
			v-54.8L1049.6,272.6z"/>
	</g>
</g>
<g opacity="4.000000e-02">
	<g>
		<path fill="#FFFFFF" d="M530.2,367.8c-9.8-14.6-32-29.3-49.3-32.6l-231.6-45c-17.3-3.4-43.4,1.9-57.9,11.8L16.2,420h549.2
			L530.2,367.8z"/>
	</g>
</g>
</svg>
