<svg xmlns="http://www.w3.org/2000/svg" viewBox="0 0 200 200" enable-background="new 0 0 200 200"><circle fill="#F25C3E" cx="100" cy="100" r="100"/><path fill="#F5856E" d="M104 59v-7h-20c-17.7 0-32 14.3-32 32l-6 24h6v16c0 2.2 1.8 4 4 4h12v12h36v-31c7.3-5.9 12-14.9 12-25s-4.7-19.1-12-25zm-40 33c-2.2 0-4-1.8-4-4s1.8-4 4-4 4 1.8 4 4-1.8 4-4 4z"/><path fill="#F8AD9E" d="M124 59v-7h-20c-17.7 0-32 14.3-32 32l-6 24h6v16c0 2.2 1.8 4 4 4h12v16h36v-35c7.3-5.9 12-14.9 12-25s-4.7-19.1-12-25zm-40 33c-2.2 0-4-1.8-4-4s1.8-4 4-4 4 1.8 4 4-1.8 4-4 4z"/><path fill="#fff" d="M124 52c-17.7 0-32 14.3-32 32l-6 24h6v16c0 2.2 1.8 4 4 4h12v20h36v-39c7.3-5.9 12-14.9 12-25 0-17.7-14.3-32-32-32zm-20 40c-2.2 0-4-1.8-4-4s1.8-4 4-4 4 1.8 4 4-1.8 4-4 4z"/></svg>