<?xml version="1.0" encoding="utf-8"?>
<!-- Generator: Adobe Illustrator 17.1.0, SVG Export Plug-In . SVG Version: 6.00 Build 0)  -->
<!DOCTYPE svg PUBLIC "-//W3C//DTD SVG 1.1//EN" "http://www.w3.org/Graphics/SVG/1.1/DTD/svg11.dtd">
<svg version="1.1" id="Layer_1" xmlns="http://www.w3.org/2000/svg" xmlns:xlink="http://www.w3.org/1999/xlink" x="0px" y="0px"
	 width="112px" height="112px" viewBox="0 0 112 112" enable-background="new 0 0 112 112" xml:space="preserve">
<path fill="#9EDBD7" d="M68,48H4c-2.2,0-4,1.8-4,4v48c0,2.2,1.8,4,4,4h8v8l12-8h44c2.2,0,4-1.8,4-4V52C72,49.8,70.2,48,68,48z"/>
<path fill="#3EB8AF" d="M108,8H28c-2.2,0-4,1.8-4,4v60c0,2.2,1.8,4,4,4h52l20,12V76h8c2.2,0,4-1.8,4-4V12C112,9.8,110.2,8,108,8z
	 M52,48c-3.3,0-6-2.7-6-6s2.7-6,6-6s6,2.7,6,6S55.3,48,52,48z M68,48c-3.3,0-6-2.7-6-6s2.7-6,6-6s6,2.7,6,6S71.3,48,68,48z M78,42
	c0-3.3,2.7-6,6-6s6,2.7,6,6s-2.7,6-6,6S78,45.3,78,42z"/>
</svg>
