<?xml version="1.0" encoding="utf-8"?>
<!-- Generator: Adobe Illustrator 17.1.0, SVG Export Plug-In . SVG Version: 6.00 Build 0)  -->
<!DOCTYPE svg PUBLIC "-//W3C//DTD SVG 1.1//EN" "http://www.w3.org/Graphics/SVG/1.1/DTD/svg11.dtd">
<svg version="1.1" id="Layer_1" xmlns="http://www.w3.org/2000/svg" xmlns:xlink="http://www.w3.org/1999/xlink" x="0px" y="0px"
	 width="112px" height="112px" viewBox="0 0 112 112" enable-background="new 0 0 112 112" xml:space="preserve">
<path fill="#F8AD9E" d="M56,0C36.2,0,20,16.2,20,36v4h12v-4c0-13.2,10.8-24,24-24s24,10.8,24,24v28h12V36C92,16.2,75.8,0,56,0z"/>
<path fill="#F25C3E" d="M100,48H12c-2.2,0-4,1.8-4,4v48c0,2.2,1.8,4,4,4h88c2.2,0,4-1.8,4-4V52C104,49.8,102.2,48,100,48z M60,78.9
	V88c0,2.2-1.8,4-4,4s-4-1.8-4-4v-9.1c-2.4-1.4-4-4-4-6.9c0-4.4,3.6-8,8-8s8,3.6,8,8C64,75,62.4,77.5,60,78.9z"/>
</svg>
