<svg xmlns="http://www.w3.org/2000/svg" viewBox="0 0 200 200" enable-background="new 0 0 200 200"><circle fill="#025A74" cx="100" cy="100" r="100"/><path fill="#fff" d="M152 52h-104c-2.2 0-4 1.8-4 4v88c0 2.2 1.8 4 4 4h104c2.2 0 4-1.8 4-4v-88c0-2.2-1.8-4-4-4zm-86 6c1.1 0 2 .9 2 2s-.9 2-2 2-2-.9-2-2 .9-2 2-2zm-6 0c1.1 0 2 .9 2 2s-.9 2-2 2-2-.9-2-2 .9-2 2-2zm-6 0c1.1 0 2 .9 2 2s-.9 2-2 2-2-.9-2-2 .9-2 2-2zm98 86h-104v-76h104v76z"/><path fill="#418397" d="M56 80h36v24h-36z"/><path fill="#80ACB9" d="M100 80h44v8h-44zm0 16h44v8h-44zm-44 16h88v8h-88zm0 16h88v8h-88z"/></svg>