<svg xmlns="http://www.w3.org/2000/svg" viewBox="0 0 112 112" enable-background="new 0 0 112 112"><path fill="#9EDBD7" d="M68 48h-64c-2.2 0-4 1.8-4 4v48c0 2.2 1.8 4 4 4h8v8l12-8h44c2.2 0 4-1.8 4-4v-48c0-2.2-1.8-4-4-4z"/><path fill="#3EB8AF" d="M108 8h-80c-2.2 0-4 1.8-4 4v60c0 2.2 1.8 4 4 4h52l20 12v-12h8c2.2 0 4-1.8 4-4v-60c0-2.2-1.8-4-4-4zm-56 40c-3.3 0-6-2.7-6-6s2.7-6 6-6 6 2.7 6 6-2.7 6-6 6zm16 0c-3.3 0-6-2.7-6-6s2.7-6 6-6 6 2.7 6 6-2.7 6-6 6zm10-6c0-3.3 2.7-6 6-6s6 2.7 6 6-2.7 6-6 6-6-2.7-6-6z"/></svg>