<?xml version="1.0" encoding="utf-8"?>
<!-- Generator: Adobe Illustrator 17.1.0, SVG Export Plug-In . SVG Version: 6.00 Build 0)  -->
<!DOCTYPE svg PUBLIC "-//W3C//DTD SVG 1.1//EN" "http://www.w3.org/Graphics/SVG/1.1/DTD/svg11.dtd">
<svg version="1.1" id="Layer_1" xmlns="http://www.w3.org/2000/svg" xmlns:xlink="http://www.w3.org/1999/xlink" x="0px" y="0px"
	 width="200px" height="200px" viewBox="0 0 200 200" enable-background="new 0 0 200 200" xml:space="preserve">
<circle fill="#F25C3E" cx="100" cy="100" r="100"/>
<path fill="#F5856E" d="M104,59v-7H84c-17.7,0-32,14.3-32,32l-6,24h6v16c0,2.2,1.8,4,4,4h12v12h36v-31c7.3-5.9,12-14.9,12-25
	C116,73.9,111.3,64.9,104,59z M64,92c-2.2,0-4-1.8-4-4c0-2.2,1.8-4,4-4s4,1.8,4,4C68,90.2,66.2,92,64,92z"/>
<path fill="#F8AD9E" d="M124,59v-7h-20c-17.7,0-32,14.3-32,32l-6,24h6v16c0,2.2,1.8,4,4,4h12v16h36v-35c7.3-5.9,12-14.9,12-25
	C136,73.9,131.3,64.9,124,59z M84,92c-2.2,0-4-1.8-4-4c0-2.2,1.8-4,4-4s4,1.8,4,4C88,90.2,86.2,92,84,92z"/>
<path fill="#FFFFFF" d="M124,52c-17.7,0-32,14.3-32,32l-6,24h6v16c0,2.2,1.8,4,4,4h12v20h36v-39c7.3-5.9,12-14.9,12-25
	C156,66.3,141.7,52,124,52z M104,92c-2.2,0-4-1.8-4-4c0-2.2,1.8-4,4-4s4,1.8,4,4C108,90.2,106.2,92,104,92z"/>
</svg>
