<?xml version="1.0" encoding="utf-8"?>
<!-- Generator: Adobe Illustrator 17.1.0, SVG Export Plug-In . SVG Version: 6.00 Build 0)  -->
<!DOCTYPE svg PUBLIC "-//W3C//DTD SVG 1.1//EN" "http://www.w3.org/Graphics/SVG/1.1/DTD/svg11.dtd">
<svg version="1.1" id="Layer_1" xmlns="http://www.w3.org/2000/svg" xmlns:xlink="http://www.w3.org/1999/xlink" x="0px" y="0px"
	 width="1160px" height="420px" viewBox="0 0 1160 420" enable-background="new 0 0 1160 420" xml:space="preserve">
<path opacity="5.000000e-02" fill="#FFFFFF" d="M1160,42.7l-56.3-31.2C1088.3,3,1061.9,0,1045,4.8L822.2,68.7
	c-16.9,4.9-37.7,21.4-46.3,36.8L663.5,308.3c-8.5,15.4-11.5,41.8-6.7,58.7l15.2,53h488V42.7z"/>
<path opacity="5.000000e-02" fill="#FFFFFF" d="M817.6,161.8l-237.2-33.3c-17.4-2.4-43.2,4.2-57.2,14.8L331.8,287.4
	c-14.1,10.6-27.6,33.5-30,50.9L290.3,420H1027c-2.1-13.6-7.4-27.7-14.3-36.9L868.6,191.8C858,177.7,835,164.2,817.6,161.8z"/>
<path opacity="5.000000e-02" fill="#FFFFFF" d="M1160,420v-54.8l-110.4-92.6c-13.5-11.3-38.9-19.3-56.4-17.8L750,276.1
	c-17.5,1.5-41.1,13.8-52.4,27.3L599.7,420H1160z"/>
<path opacity="5.000000e-02" fill="#FFFFFF" d="M249.3,290.1c-17.3-3.4-43.4,1.9-57.9,11.8L16.2,420h549.2l-35.2-52.2
	c-9.8-14.6-32-29.3-49.3-32.6L249.3,290.1z"/>
</svg>
